<?xml version="1.0" encoding="iso-8859-1"?>
<!-- Generator: Adobe Illustrator 19.0.0, SVG Export Plug-In . SVG Version: 6.00 Build 0)  -->
<svg version="1.1" id="Layer_1" xmlns="http://www.w3.org/2000/svg" xmlns:xlink="http://www.w3.org/1999/xlink" x="0px" y="0px"
	 viewBox="0 0 511.994 511.994" style="enable-background:new 0 0 511.994 511.994;" xml:space="preserve">
<path style="fill:#D6D5D8;" d="M359.14,32.53H191.542H23.943C10.718,32.53,0,43.25,0,56.473v95.769V295.9
	c0,4.133,1.047,8.021,2.889,11.413c0.737,1.357,1.601,2.634,2.578,3.816c4.391,5.322,11.038,8.712,18.476,8.712h167.599h28.79
	c-2.463-7.644-4.698-15.638-6.634-23.943c-1.796-7.713-3.314-15.706-4.511-23.943c-1.808-12.45-2.872-25.459-2.905-38.98
	c-0.019-7.548,3.52-14.663,9.555-19.197c6.029-4.535,13.845-5.96,21.097-3.845c7.098,2.072,14.332,3.122,21.499,3.122
	c39.659,0,67.828-19.931,74.971-36.872c1.168-2.771,1.796-5.467,1.796-7.978c0-6.144,2.332-11.727,6.136-15.965
	c4.383-4.886,10.728-7.978,17.807-7.978c10.418,0,19.259,6.669,22.549,15.96c0.886-2.498,1.393-5.18,1.393-7.982V56.473
	C383.083,43.25,372.361,32.53,359.14,32.53z"/>
<path style="fill:#5286F9;" d="M359.14,32.53H191.542H23.943C10.718,32.53,0,43.25,0,56.473v95.769
	c0,13.223,10.718,23.943,23.943,23.943h23.943h143.656h141.86h49.681v-23.943v-9.973V56.473
	C383.083,43.25,372.361,32.53,359.14,32.53z"/>
<path style="fill:#A78966;" d="M502.444,213.78c-6.032-4.536-13.848-5.96-21.097-3.845c-7.095,2.072-14.329,3.122-21.499,3.122
	c-46.149,0-76.767-26.993-76.767-44.849c0-2.803-0.508-5.483-1.393-7.982c-3.29-9.291-12.131-15.96-22.549-15.96
	c-7.081,0-13.424,3.093-17.807,7.978c-3.804,4.238-6.136,9.821-6.136,15.965c0,2.511-0.627,5.207-1.796,7.978
	c-7.143,16.939-35.312,36.872-74.971,36.872c-7.167,0-14.399-1.05-21.499-3.122c-7.251-2.115-15.066-0.69-21.097,3.845
	c-6.035,4.536-9.574,11.65-9.555,19.197c0.034,13.521,1.098,26.53,2.905,38.98c1.197,8.236,2.715,16.23,4.511,23.943
	c1.936,8.305,4.171,16.299,6.634,23.943c11.981,37.223,29.162,66.307,41.406,84.084c25.153,36.519,63.949,75.538,97.4,75.538
	s72.253-39.019,97.404-75.538c20.626-29.944,55.255-91.97,55.454-170.949C512.018,225.428,508.477,218.313,502.444,213.78z"/>
<path style="fill:#D6D5D8;" d="M383.083,168.207v-15.965c0,2.803-0.508,5.484-1.393,7.982
	C382.575,162.724,383.083,165.404,383.083,168.207z"/>
<path style="fill:#C3C3C7;" d="M47.885,176.185H23.943C10.718,176.185,0,165.465,0,152.242V295.9
	c0,13.224,10.718,23.943,23.943,23.943h167.599V176.185L47.885,176.185L47.885,176.185z"/>
<path style="fill:#3D6DEB;" d="M23.943,176.185h23.943h143.656V32.53H23.943C10.718,32.53,0,43.25,0,56.473v95.769
	C0,165.465,10.718,176.185,23.943,176.185z"/>
<path style="fill:#806749;" d="M341.333,152.242c-3.804,4.238-6.136,9.821-6.136,15.965c0,2.511-0.627,5.207-1.796,7.978
	c-7.143,16.939-35.312,36.872-74.971,36.872c-7.167,0-14.399-1.05-21.499-3.122c-7.251-2.115-15.066-0.69-21.097,3.845
	c-6.035,4.536-9.574,11.65-9.555,19.197c0.034,13.521,1.098,26.53,2.905,38.98c1.197,8.236,2.715,16.23,4.511,23.943
	c1.936,8.305,4.171,16.299,6.634,23.943c11.981,37.223,29.162,66.307,41.406,84.084c25.153,36.519,63.949,75.538,97.4,75.538
	V144.264C352.06,144.264,345.716,147.356,341.333,152.242z"/>
<g>
</g>
<g>
</g>
<g>
</g>
<g>
</g>
<g>
</g>
<g>
</g>
<g>
</g>
<g>
</g>
<g>
</g>
<g>
</g>
<g>
</g>
<g>
</g>
<g>
</g>
<g>
</g>
<g>
</g>
</svg>
