<?xml version="1.0" standalone="no"?>
<!DOCTYPE svg PUBLIC "-//W3C//DTD SVG 20010904//EN"
 "http://www.w3.org/TR/2001/REC-SVG-20010904/DTD/svg10.dtd">
<svg version="1.0" xmlns="http://www.w3.org/2000/svg"
 width="300.000000pt" height="300.000000pt" viewBox="0 0 300.000000 300.000000"
 preserveAspectRatio="xMidYMid meet">

<g transform="translate(0.000000,300.000000) scale(0.100000,-0.100000)"
fill="#000000" stroke="none">
<path d="M1453 2740 c-40 -5 -108 -19 -153 -30 -264 -67 -458 -177 -645 -365
-201 -200 -313 -408 -382 -710 -28 -124 -25 -396 5 -534 54 -242 169 -469 319
-632 53 -57 57 -59 74 -43 20 18 66 109 80 159 5 16 18 124 29 240 41 419 78
655 136 866 63 228 147 411 219 478 53 49 87 53 112 14 15 -23 18 -50 17 -185
-1 -178 -8 -170 81 -86 107 100 234 188 272 188 32 0 47 -37 39 -93 -8 -53
-64 -170 -100 -211 -14 -16 -25 -30 -24 -31 2 -2 42 -12 90 -24 101 -25 250
-82 363 -138 351 -174 427 -357 235 -565 -64 -71 -138 -113 -276 -160 -192
-64 -231 -93 -259 -190 -15 -53 -15 -69 0 -215 9 -87 19 -225 23 -308 l7 -150
55 3 c30 2 96 13 145 24 267 61 478 178 671 372 200 201 314 409 376 687 30
138 33 410 5 534 -47 202 -113 361 -214 513 -66 99 -225 265 -328 340 -143
105 -358 198 -550 237 -96 19 -322 27 -422 15z"/>
<path d="M1539 1467 c-87 -58 -91 -188 -9 -247 46 -33 124 -38 168 -11 96 61
96 202 0 261 -46 28 -115 26 -159 -3z"/>
</g>
</svg>
